<svg xmlns="http://www.w3.org/2000/svg" viewBox="0 0 579.12 416.26"><defs><style>.cls-1{fill:#f7ccb0;}.cls-2{fill:#60bab8;}.cls-3{fill:#eabb42;}.cls-4{fill:#495156;}.cls-5{fill:#2c3338;}.cls-6{fill:#388ab2;}.cls-7{fill:#3588a8;}.cls-8{fill:#6cbde5;}.cls-9{fill:#e0ad3b;}.cls-10{fill:#d19d33;}.cls-11{fill:#8ddee2;}.cls-12{fill:#364049;}.cls-13,.cls-22,.cls-24{fill:none;stroke-miterlimit:10;}.cls-13{stroke:#ebbb99;}.cls-13,.cls-22{stroke-width:1.7px;}.cls-14{fill:#e2a379;}.cls-15{fill:#2d3438;}.cls-16{fill:#89aacc;}.cls-17{fill:#ebbb99;}.cls-18{fill:#c982c4;}.cls-19{fill:#73bc92;}.cls-20{fill:#8c6b5d;}.cls-21{fill:#704f43;}.cls-22,.cls-24{stroke:#704f43;}.cls-23{fill:#af68ae;}.cls-25{fill:#e5b69c;}</style></defs><title>Asset 1</title><g id="Layer_2" data-name="Layer 2"><g id="Layer_1-2" data-name="Layer 1"><path class="cls-1" d="M331.68,239.19c12.84,7.62,48.82,33.11,69.56,39.08,13.76,4,20.17-1.83,21.71-12l1.83-12.09v-.05c5.46-24.93,16.27-76.29,16.27-76.29l-25.67-11.14-3.49,19.05-11.52,62.47c-20.45-4.47-55.57-23.29-60.2-25.28"/><ellipse class="cls-2" cx="133.21" cy="384.05" rx="110.58" ry="30.99" transform="translate(-19.82 7.46) rotate(-2.99)"/><ellipse class="cls-2" cx="437.96" cy="384.66" rx="30.99" ry="122.34" transform="translate(31.01 801.99) rotate(-87.01)"/><path class="cls-3" d="M289,357.22h0a25.36,25.36,0,0,0,6.25,16.45l1.89,2.16a61,61,0,0,0,15.12,9.52,22.67,22.67,0,0,0,2.68,1c12.24,3.42,22,1.95,34.59.22l18.3-2.51-4-27-21.47,6.15-.21,0c-9.15.73-14.37-4.17-22.69-8l-8.09-6.68c-5.13-3.61-14.14-2.55-19,1.48C290.67,351.45,289.42,355.25,289,357.22Z"/><path class="cls-3" d="M446,364.22s32.66,8,52.89,2.07a31.91,31.91,0,0,1,11.9-1.39A14.89,14.89,0,0,1,524.13,377c1.46,7.72-3.51,12.93-8.78,14.85-9.57,3.48-19.91,4.53-27.37,4.78A47.36,47.36,0,0,1,470,393.7l-31.16-11.51Z"/><polygon class="cls-4" points="439.53 365.53 496.64 387.24 492.78 355.39 444.8 345.82 439.53 365.53"/><polygon class="cls-5" points="547.38 318.11 550.65 343.22 534.87 340.53 520.68 324.7 547.38 318.11"/><path class="cls-6" d="M527.89,244.1"/><path class="cls-6" d="M415,277"/><path class="cls-6" d="M419.84,274.56"/><path class="cls-7" d="M529.07,209.52"/><path class="cls-7" d="M517.08,326.39"/><path class="cls-8" d="M474.52,174.77"/><path class="cls-3" d="M544.07,322.13a3.85,3.85,0,0,0,3.31-4c-.22-4.37-2.92-23.59-4.52-32.8-2.08-12-2.92-30.51-2.92-30.51l-2.12-32.88-.09.27a71.56,71.56,0,0,0,30.65-4.56h0c2.46-.94,3.86-2.41,3.49-4.67l-6.08-37.59a49.06,49.06,0,0,0-32.14-38.44h0a257.48,257.48,0,0,0-42.28-11l-45.22-7.7a19.82,19.82,0,0,0-13.36,2.45h0a19.82,19.82,0,0,0-8.14,9.17L410,163.62c-.68,1.56.12,2.87,1.45,4.2l2,1.6A54.65,54.65,0,0,0,434,180h0a406.79,406.79,0,0,1-3.06,49.06c-3.56,28.4-7.84,63.44-9.1,78.32,0,0-.61,7.74,21.92,13.07,9.65,2.28,19.33,4.42,29.08,5.91a138.48,138.48,0,0,0,40.27.15Z"/><path class="cls-9" d="M432.79,120.71"/><path class="cls-9" d="M434,180"/><path class="cls-10" d="M434,180a80,80,0,0,1,3.18-16.92l1.92-6.56-7.57,19.68L427.92,178Z"/><line class="cls-10" x1="428.86" y1="178.36" x2="433.52" y2="179.87"/><path class="cls-10" d="M534.43,222"/><path class="cls-1" d="M499.56,140.28a5,5,0,0,0,.85-6.67c-3-4.27-8.49-13.73-7.33-23.78,1.58-13.62-37.15,3.8-37.15,3.8s6.09,20.57,4.44,24.55,13.21,9.46,19,9.39C483.78,147.52,494.54,144.69,499.56,140.28Z"/><path class="cls-1" d="M447.43,23.69c-10.76.9-13,15.07-12.49,22.46.23,3.49,1.37,9,.78,12.45l-1.6,9.28A47.49,47.49,0,0,0,434.58,87c2.5,10.45,9.32,23,27.61,23.17,31.34.25,42.66-26.92,42.66-26.92s12.11-.07,12.58-8.45a15.25,15.25,0,0,0-.61-5,11.43,11.43,0,0,0-1.76-4l-3.43-26.7L494.29,24.34Z"/><path class="cls-8" d="M510,64.65l-.63.33v0C509.54,64.85,509.75,64.74,510,64.65Z"/><path class="cls-11" d="M436,28.26s-9.35-9.53-3.5-21.69c3-6.32,10.14-7,16-6.36a35.11,35.11,0,0,1,11.29,3.32c18.47,9,44.52.85,50.45,8.28a12,12,0,0,1,2.59,5.31c1.26,5,.5,7.42.5,7.42s8.87,2.84,9,11.19c.09,7.24-.86,21.26-6.57,31.33-1.31-2.51-2.59-4.24-7.16-4.07-4.87.18-7.75,6.06-7.75,6.06l-5.31.06,1.53-13.93a30.94,30.94,0,0,0-1.78-14.25c-.86-2.29-3.6-6.64-4.81-7.43a21.09,21.09,0,0,0-15.56-2.83l-16,3.14S439.78,34.78,436,28.26Z"/><path class="cls-12" d="M433.36,76.41s1.58,7.91,4.22,7.79c1.5-.06,4.34-1.91,6.32-2.14,6-.68,12.38.27,17,4.08,8.9,7.31,36.17.88,34.63-17l5.31-.06s-3.18,8.48,4,14.21c2.36,1.89,2.7,10.85-.25,15.94-10.78,18.56-38.74,24.73-58.79,17.08C434.85,112.11,428.06,92.71,433.36,76.41Z"/><path class="cls-5" d="M504.59,99.21c-10.78,18.55-38.73,24.72-58.77,17.08a14.3,14.3,0,0,1-2.77-1.43c20,7.28,47.47,1,58.13-17.31a16.36,16.36,0,0,0,.25-16c-3.36-5.71-1.61-9.64-.56-12.55h0s-3.17,8.49,4,14.2C507.21,85.15,507.55,94.12,504.59,99.21Z"/><path class="cls-13" d="M458.72,96s-2.94,4.43-9.52,2.7A8.65,8.65,0,0,1,444.32,95"/><path class="cls-14" d="M454.09,66.57a1.16,1.16,0,0,0-2.16-.21c-2.28,4.48-6.64,13.36-6.53,15.52.09,1.84,4.13,2.71,7.1,3.1,1.64.22,4.78-1.11,4.76-2.76l0-3.39a11.36,11.36,0,0,0-.51-3.22Z"/><path class="cls-14" d="M504.88,71.3a3,3,0,0,1,1.29-2.85c1.25-.85,4.29-1.7,5.17-.37,1.94,2.95,3.45,8.8-3.17,10,0,0-.16-2.68-2.65-1.82Z"/><path class="cls-10" d="M534.43,222c-.6-.23-3.94-.68-4.23-2.55-.23-1.5-1.27-19.91-1.26-21.52l1.92,4.12c0,6.28.86,16.11,1,17.15.09.59,4.58,2.56,5.86,3Z"/><path class="cls-4" d="M463,358.58"/><path class="cls-4" d="M372,366.26"/><path class="cls-4" d="M550.65,343.22a10.09,10.09,0,0,0-1.7-5.58c-6.17-9.28-29.46-42.78-49.52-50.75-17.11-6.8-26.94-.53-31,3.3a99.07,99.07,0,0,1-9,7.62c-72.41,54.06-88,56.92-94.74,59.09-2.69.87-8.81,3.43-8.81,3.43s-11.35,16.67,9.55,25.18l102.63-36,7.78,10.27,20.77,27.42C546.77,388.82,550.66,354.08,550.65,343.22Z"/><path class="cls-4" d="M444.36,308.88s-94-58.73-109.44-35.86c0,0-11.86,7.31-3.11,36.26s32.91,47.61,32.91,47.61l29.1-6.54,45.29-25.43Z"/><path class="cls-15" d="M449.42,369.29l15.76-6.86A75,75,0,0,0,499.41,333a61.05,61.05,0,0,0,7.79-19.07h0l-13.85-8.39-54,44.6Z"/><polygon class="cls-15" points="389.59 317.75 416.66 330.23 402.84 339.09 389.59 317.75"/><path class="cls-4" d="M365.46,385.51s115.22-20.94,137.32-59.06S457,312.67,457,312.67Z"/><path class="cls-4" d="M439.74,382.74l-62-12.61L412,356.34l31.67,6.76S452.57,372.67,439.74,382.74Z"/><path class="cls-3" d="M470,393.7A47.36,47.36,0,0,0,488,396.61c7.46-.24,17.8-1.3,27.37-4.78,5.27-1.92,11-7.94,9-18a15.15,15.15,0,0,0-13.6-12c-3.28-.3-10.18,3.06-14.86,4.43-7.9,2.31-42-2.15-51-2.78h0a9.71,9.71,0,0,1,1.37,4.54l3.17,3"/><path class="cls-16" d="M447.84,414.32"/><path class="cls-17" d="M176.29,303.49s2.76,37.29-6.1,58.48c-3.22,7.69-11.7,12-19.59,9.35-1.92-.66-3.3-1.57-3.3-2.85,0-4.24,6-50.33,3.44-68.71s25.4-5.66,25.4-5.66Z"/><path class="cls-12" d="M49.26,113.53c-.38-4.49-1.94-10.64-4-17.26L66.81,48.64C57.83,38.17,29.57,23.7,10,46.42-12.63,72.67,9.16,98,16.93,111c5.29,8.83,3.9,20.2-3.41,27a8.93,8.93,0,0,0-2.69,8.24c.76,3.66,4,7,14.59,3.92,6.85-2,17.39-5.44,23.77-10.58a69.32,69.32,0,0,0,17.62-21.95v-69"/><path class="cls-12" d="M67.81,46.42l-1,2.22C72,54.65,73.14,57.29,67.81,46.42Z"/><path class="cls-18" d="M138.25,264.13c-1.7-10.74,1-46,1-46l11.5,81.58s23.71,6.22,25.4-5.66-11.88-82-14.7-94.44-5.66-65.55-13.57-69.56-22.68,2.27-22.68,2.27L52.88,169.13l-11.33,16.4v14.14l-5,47.33,10,11.72c0,24-5.87,47.21-8.07,51.07-.66,1.16-3,6.7-1.72,7.12C91.44,335.15,138,318,146.58,309.06a2,2,0,0,0,.52-1.83Z"/><path class="cls-18" d="M65.86,150.17s-44.67,11.56-50.33,27.7c-3.24,9.26-11,49.93-10,80.53a64.57,64.57,0,0,0,6,24.9,40.46,40.46,0,0,0,22.27,20.59l1.08.42,21.71-33.76c.73,0-12.83-13.51-16.52-24.32"/><path class="cls-19" d="M38.2,236.42"/><path class="cls-20" d="M73,136v11.48a30.91,30.91,0,0,0-7.1,2.72c-7.74,4.23-15.4,15.9-4,23.2,17.18,11,40.72-1.7,40.72-1.7s23.33-11.45,5.94-24l.77-3.66Z"/><path class="cls-20" d="M103.76,144.81c-30,1.7-44.67-23.19-44.67-23.19a12.83,12.83,0,0,1-3.12-.53,22.26,22.26,0,0,0,3.31-5.48l5.82-13.71-8.77,2.51c.37,6.87-1.51,11.74-3.75,15.06-2.39-1.75-4.26-4.92-3-10.72,1.34-6,4.26-6.35,7-5L53.42,81.48,73,70.16l54,13L129.77,108S133.74,143.12,103.76,144.81Z"/><path class="cls-21" d="M108.5,147.7l.78-3.65s0,0,0,0a33.05,33.05,0,0,1-5.5.76A47.65,47.65,0,0,1,73,136v3S90,150.9,108.5,147.7Z"/><path class="cls-12" d="M73.33,82.46,75.2,93.63,99.66,43.72S86,38.37,71.28,42.05c-10.93,2.73-22.46,12-29.45,24C28.55,89,43.76,110.5,50,117.57c1.47,1.66,2.42,1.82,2.42,1.82l-.28-.4a18.2,18.2,0,0,1-3-6.9h0l7.38-8.34c.39,7.28-1.73,12.32-4.14,15.64a17.86,17.86,0,0,1-6.07,5.43l.45.06a9.08,9.08,0,0,0,7.8-2.73,20.7,20.7,0,0,0,4.91-7.2Z"/><path class="cls-5" d="M56,121.09a17,17,0,0,1-1.61,1.71,9,9,0,0,1-7.8,2.73l-.44-.05a17.86,17.86,0,0,0,6.07-5.43,6.89,6.89,0,0,0,.39-.58A10.46,10.46,0,0,0,56,121.09Z"/><path class="cls-5" d="M48.46,115.55c-6.63-7.84-20.07-27.84-7.35-49.81,5.75-9.92,13.1-17.36,22.14-20.58-6.77-.45-10.37,1.4-17.4,6.3C30.53,62.13,27.24,81.05,33.4,96.78,38.18,109,45.11,113,48.46,115.55Z"/><path class="cls-5" d="M74.76,82.46C74.4,68.43,77.52,46.2,100.3,44c0,0,.6-.63-2.26-.75a21.45,21.45,0,0,0-10.57,2.36c-6.25,3.19-11.55,7.62-13.4,15.12-2,8,.54,16.17.68,21.72h0"/><path class="cls-21" d="M111.15,103.11s7.35,11.06,7.35,13.85c0,4.39-8.58,3.64-8.58,3.64Z"/><path class="cls-22" d="M106.42,131.07s9.76,2.62,15.48-6.1"/><path class="cls-12" d="M139.24,70.16s-6-29.69-39.59-26.44S75.2,93.63,75.2,93.63,129.06,96.74,139.24,70.16Z"/><path class="cls-20" d="M49.19,112.08s-2.32-11.63,7.38-8.34L50.4,115.27Z"/><path class="cls-23" d="M57.29,284"/><path class="cls-23" d="M48.88,281.31c-5.33-2-7.21-4.55-8.68-9.08h0l-.11-.47L38.88,258l4.49,8.67a25.83,25.83,0,0,0,1.53,2.63l8.66,14"/><path class="cls-17" d="M148.07,357.45"/><path class="cls-18" d="M277.78,364.17a25.36,25.36,0,0,1-6.05,16.52l-1.86,2.19a60.87,60.87,0,0,1-15,9.7,22.51,22.51,0,0,1-2.66,1c-12.21,3.57-22,2.21-34.59.63l-15.75-2-.29,0-.28,0-1.23-.15h0l-.74-.09v0l.05-.37.12-.94L203,364.9l8,2.17h0l13.58,3.71.21,0c9.16.63,15.31-4.34,23.59-8.31l8-7.77c5.09-3.67,13.1.28,18,4.25A9.32,9.32,0,0,1,277.78,364.17Z"/><path class="cls-18" d="M128.24,389.9l-1,.4-30,11.48a47.15,47.15,0,0,1-17.9,3.12c-7.46-.15-17.81-1.09-27.42-4.45l-.44-.16c-.43-.17-.86-.36-1.29-.58,0,0,0,0,0,0a13.28,13.28,0,0,1-6.78-7.46c-.06-.16-.11-.33-.16-.5l0-.09a13.22,13.22,0,0,1-.24-6,14.9,14.9,0,0,1,13.23-12.24,31.8,31.8,0,0,1,11.91,1.26,47,47,0,0,0,4.64,1,71.09,71.09,0,0,0,11.84.94,148.9,148.9,0,0,0,26-2.48c4.52-.81,7.93-1.59,9.47-2l.9-.22.36.88.25.61.71,1.76Z"/><polygon class="cls-4" points="127.4 373.26 127.21 373.33 122.28 375.27 120.7 375.9 120.69 375.9 117.56 377.13 70.56 395.64 72.73 375.74 72.81 375.05 74.04 363.75 85.62 361.3 94.06 359.51 97.86 358.7 100.32 358.18 121.9 353.61 124.62 363.33 125.56 366.69 126.53 370.14 127.4 373.26"/><path class="cls-4" d="M104.08,382.58"/><path class="cls-4" d="M195.18,389.19"/><path class="cls-4" d="M127.35,332.65l-5.43-15.91c11.41,8.09,21.15,14.74,29.49,20.21,4.8,3.15,9.13,5.91,13,8.32,25.15,15.51,33.27,17.12,37.65,18.48l-29.17-6.2Z"/><path class="cls-4" d="M234.45,315.75c-8.4,29.06-32.34,48-32.34,48l-29.17-6.2-45.59-24.9-5.43-15.91,0-.07s93.34-59.83,109-37.15C230.91,279.52,242.86,286.69,234.45,315.75Z"/><path class="cls-4" d="M201.86,392.29l-.16.07-.41-.14-1.95-.66-30-10.12-37.22-12.55-6.52-2.2-2.27-.77-23-7.74-1.66-.56-.8,1.08-1.47,2-3.83,5.18L91,368l-5.18,7-1.25,1.69-14,19c-11.17.48-20.07-.87-27.15-3.38h0c-.06-.16-.11-.33-.16-.5l0-.09a17.42,17.42,0,0,1-.47-9.08,15.15,15.15,0,0,1,13.46-12.12c3.28-.34,10.22,2.94,14.91,4.26a13.9,13.9,0,0,0,1.72.33L74,363.75l11.58-2.45a72.89,72.89,0,0,1-18.48-19.85,66.37,66.37,0,0,1-4.39-8.18c-2.46-4.46-3.57-8-3.62-10.77a0,0,0,0,1,0,0h0c-.33-19.3,50.15-1.87,50.15-1.87l65.59,50.93,14.41,5.6-5.63,1.21,15.81,12.28L203,364.9l8,2.17h0S222.44,383.52,201.86,392.29Z"/><path class="cls-15" d="M127.4,357.89l-2.78,5.44-1.33,2.59-2.6,5.1-.24.46-.39.76-2.5,4.89-7-2.93-3-1.28-5.85-2.46a76.8,76.8,0,0,1-9.16-4.59,74.51,74.51,0,0,1-25.42-24.42,66.37,66.37,0,0,1-4.39-8.18,57.77,57.77,0,0,1-3.62-10.77,0,0,0,0,1,0,0h0l13.75-8.55Z"/><polygon class="cls-15" points="176.78 324.88 149.86 337.69 163.78 346.38 176.78 324.88"/><path class="cls-4" d="M201.7,392.36l-1.64-.29h0l-.73-.13c-5.62-1-20.56-3.92-38.67-8.62-10.47-2.72-22-6.05-33.41-10q-2.3-.78-4.59-1.61l-.66-.24-.3-.11-1-.35a241,241,0,0,1-24.3-10.33c-.79-.39-1.56-.78-2.33-1.18-13.67-7.08-24.82-15.28-30.36-24.58-.34-.57-.66-1.12-1-1.66-2.46-4.46-3.57-8-3.62-10.77a0,0,0,0,1,0,0c-.33-19.3,50.15-1.87,50.15-1.87l65.59,50.93,8.78,6.81,15.81,12.28,2.11,1.64Z"/><path class="cls-4" d="M210.89,367,203,364.9l-3.53,25.72-15.81-12.28-14.35,3.1-8.68,1.87-33.22,7.16-.21-.17c-6.92-5.39-7.44-10.7-6.49-14.4v0a12.89,12.89,0,0,1,1.92-4.16,8.86,8.86,0,0,1,.64-.84l3.27-.74,5.55-1.25,22.78-5.14,20,7.78L109.28,320.6s-50.48-17.43-50.15,1.87h0a0,0,0,0,0,0,0c0,2.77,1.16,6.31,3.62,10.77a66.37,66.37,0,0,0,4.39,8.18A72.89,72.89,0,0,0,85.62,361.3L74,363.75,72.81,375a13.9,13.9,0,0,1-1.72-.33c-4.69-1.32-11.63-4.6-14.91-4.26a15.15,15.15,0,0,0-13.46,12.12,17.42,17.42,0,0,0,.47,9.08l0,.09c0,.17.1.34.16.5-12.2-4.33-19-12.11-22.77-19.88a42.3,42.3,0,0,1-.9-33.93c3.53-9,9.49-20.52,17-21.52a6.15,6.15,0,0,1,3.1.25c8.33-9.41,17.83-18.17,26.74-21.84,17-7,26.93-.86,31,2.93a100.63,100.63,0,0,0,9.11,7.51q8.09,5.88,15.24,11l5.43,15.91,45.59,24.9,29.17,6.2C204.65,364.53,210.22,366.78,210.89,367Z"/><path class="cls-18" d="M122,371.34l-.06.14c-.28.61-.49,1.05-.64,1.42s-.22.55-.29.79a11.91,11.91,0,0,0-.33,2.19h0l-3.13,3L97.22,401.78a47.15,47.15,0,0,1-17.9,3.12c-7.46-.15-17.81-1.09-27.42-4.45l-.44-.16c-.43-.17-.86-.36-1.29-.58,0,0,0,0,0,0a14.45,14.45,0,0,1-6.75-7.45l-.19-.51,0-.09a17.42,17.42,0,0,1-.47-9.08,15.15,15.15,0,0,1,13.46-12.12c3.28-.34,10.22,2.94,14.91,4.26a13.9,13.9,0,0,0,1.72.33,78.22,78.22,0,0,0,13-.06c6.87-.44,14.85-1.29,21.75-2.07,5.23-.59,9.85-1.14,12.88-1.44l1.21-.11Z"/><path class="cls-20" d="M144.67,276.39c-.31.57.52,4.22.38,4.83-.74,3.29-.53,4-2.8,6.66-5.51,6.59-11,10.36-32.62,16.41-18.92,5.29-50.74,5.41-74.78,0l14-23A55.61,55.61,0,0,0,64,285.82c9.29,1.61,19.91,2.64,43.77-4.69,4.36-1.34,6.33-2.64,10.65-2.15,6.67.75,10.78-2.18,16.75-7.5,2.23-2,5.53-5.12,7.38-3.75,1.09.81,1.12,3.16,1.12,3.16a2,2,0,0,1,1.72.75s1.27,1.8-.68,4.76-21.42,12.33-21.42,12.33"/><path class="cls-1" d="M531.71,392l-3.65,3.4,0,0a43.36,43.36,0,0,0,3.38-3.92Z"/><path class="cls-1" d="M531.71,392l-3.65,3.4,0,0a43.36,43.36,0,0,0,3.38-3.92Z"/><path class="cls-1" d="M531.71,392l-3.65,3.4,0,0a43.36,43.36,0,0,0,3.38-3.92Z"/><path class="cls-20" d="M110.44,273.62l5.73-7.28a2.91,2.91,0,0,1,2.93-1h0a2.91,2.91,0,0,1,2.13,1.92l.19.57a2.91,2.91,0,0,1-.11,2.11l-2.63,4.36,0,0a3.07,3.07,0,0,0,2,4.45l.89.22-17.76,6.33v-1C104.42,281.49,108.66,275.87,110.44,273.62Z"/><path class="cls-21" d="M128,283.53c2.22-.34,3.84-1.59,5.68-3a59.11,59.11,0,0,0,9.92-9.62h0l-5.06,4.49a75.61,75.61,0,0,1-6.52,5l-4.19,2.36a.43.43,0,0,0,.18.79Z"/><path class="cls-21" d="M139.61,280.52l5.06-4.12h0c-3.28,3.91-5.89,5.71-9.92,8.83,0,0-2.13,1.49-2.87,1.25-.28-.09-.67-.21-.46-.77,0-.12.26-.22.55-.33a11.34,11.34,0,0,0,2.62-1.35Z"/><path class="cls-20" d="M144.67,276.39s1.29-.65,1.4,1.63c.08,1.68-1.85,3.18-1.85,3.18l-.59.17-.28-2.29,1.32-2.69Z"/><path class="cls-20" d="M144.49,280.73c.34-.61,1.64-.42,1.31,1.33a19.85,19.85,0,0,1-2.17,4l.21-2.71Z"/><path class="cls-24" d="M134.42,289.82"/><path class="cls-21" d="M134,289.73c-.17-.07-.17-.4-.17-.4a.45.45,0,0,1,.32-.46s4.85-2.06,10.89-8.34h0C137.83,289.13,134.22,289.83,134,289.73Z"/><path class="cls-1" d="M288.5,223.54l4.78,5,9.35,5.44,6.63.85-2.72-9-10.88-4.76s-5.52-6.75-9.74-5.92a2,2,0,0,0-1.36,2.88h0A24,24,0,0,0,288.5,223.54Z"/><path class="cls-1" d="M304.67,226.67l-7-2.55-9.25-7.87a49.26,49.26,0,0,1-3.33-6.17,2.31,2.31,0,0,1,0-1.81,2.19,2.19,0,0,1,2.75-.95h0a5.78,5.78,0,0,1,2.71,2.13l1.9,2.77c2.22,3.24,6.8,6.28,10.17,8.28l1.76,1.41L301,219.17s-6.12-6.19-7-13.07c-.23-1.77,1.31-2.88,3.4-2.21.56.18,1.1,1.09,1.51,2.07a16.93,16.93,0,0,0,3.08,4.89l1.71,1.88a13.8,13.8,0,0,0,6.63,4.93,11.5,11.5,0,0,0,7.82-.34,3.6,3.6,0,0,0,0-5.1c-2.38-2.89-4.36-5.69-3.85-9.26a2.83,2.83,0,0,1,5.27-1.36c1.19,1.87,3.4,7.48,6.29,9.52,2.48,1.75,5.78,1.85,11.23,7.4a24.7,24.7,0,0,1,4.18,5.77h0l-4.76,15.13-24.85-.59-3.61.45a17.29,17.29,0,0,1-11.26-2.45c-3.45-2.14-6.6-5.33-6.69-6.28-.17-1.73,1.11-2.44,3.23-2,1.9.38,4.59,2.38,6,3.23s8.5.85,8.5.85"/><path class="cls-25" d="M288.77,215.52l4.12,5.71,8.59,5.39a2.67,2.67,0,0,0,2.05.33l1.13-.28c-1.13.28-10.58-5.62-10.58-5.62Z"/><path class="cls-25" d="M293.28,228.54"/><path class="cls-25" d="M307.81,233.76s-7.14,0-8.5-.85-4-2.86-5.95-3.23c-1.74-.34-2.91.06-3.18,1.16a.65.65,0,0,1-.05-.17c-.17-1.72,1.1-2.43,3.23-2,1.9.38,4.59,2.39,5.95,3.23s8.5.85,8.5.85Z"/><path class="cls-1" d="M578.78,286.14,568.3,217.61a71.56,71.56,0,0,1-30.49,4.57l17.09,73.37-13.56,43.11a42,42,0,0,1-12.62,20.17,27.56,27.56,0,0,1-4.61,3.35l-2.21,1.06c-3.68,1.13-2.74,1.26-6.35,1.2a12.31,12.31,0,0,1-1.36-.1c-1.22-.19-4.2-.42-5.17,1.51a1.92,1.92,0,0,0,1.19,2.65c4,1.37,10,3.56,14.71,1.08a35.45,35.45,0,0,1-17.8,10.81c-11.46,2.88-8.37,7.24-6.94,7.56,1.72.39,11.79-1.57,20.1-6.09a30.16,30.16,0,0,1-11.36,5.91c-11.46,2.88-9.17,7.18-7.74,7.5,2.08.47,16.37-2.5,25-9.25a30.35,30.35,0,0,1-11.42,6.85c-11.3,3.48-8.79,7.65-7.35,7.9,2,.35,15.43-3.14,23.77-9.95l.06.11a33.47,33.47,0,0,1-9.91,6.79c-10.72,4.66-7.76,7.49-6.31,7.43,1.76-.07,12-2.75,19-8.51l0,.09c12.83-7.32,37.09-76.3,43.77-97.94A28.08,28.08,0,0,0,578.78,286.14ZM528,384.35"/></g></g></svg>