<svg xmlns="http://www.w3.org/2000/svg" viewBox="0 0 372.77 739.42"><defs><style>.cls-1{fill:#bbd2f3;}.cls-2{fill:#254051;}.cls-11,.cls-3,.cls-9{fill:#fff;}.cls-22,.cls-4,.cls-6{fill:none;}.cls-4{stroke:#bbd2f3;}.cls-22,.cls-4{stroke-miterlimit:10;}.cls-5{fill:#87a9c6;}.cls-7{fill:#6fa851;}.cls-8{fill:#81bd64;}.cls-11,.cls-9{font-size:20.88px;font-family:MyriadPro-Regular, Myriad Pro;}.cls-9{letter-spacing:-0.01em;}.cls-10{letter-spacing:0em;}.cls-12{fill:#eaeaea;}.cls-13{fill:#ebbb99;}.cls-14{fill:#7eaac1;}.cls-15{fill:#89aacc;}.cls-16{fill:#e0ad3b;}.cls-17{fill:#62bec8;}.cls-18{fill:#e2a379;}.cls-19{fill:#364049;}.cls-20{fill:#d19d33;}.cls-21{fill:#cbdbef;}.cls-22{stroke:#fff;stroke-width:1.76px;}</style></defs><title>Asset 5</title><g id="Layer_2" data-name="Layer 2"><g id="Layer_1-2" data-name="Layer 1"><polygon class="cls-1" points="106.18 13.5 125.44 1.37 130 12 110.14 15.84 106.18 13.5"/><polygon class="cls-1" points="347.08 737.89 366.11 725.87 362.22 710.12 351.72 721.37 347.08 737.89"/><path class="cls-1" d="M352.62,725,135.87,602.12c-11.13-6.42-20.15-20.66-20.15-35.5V19.36c0-14.84,12-23.66,23.15-17.23L352.62,125c11.13,6.42,20.15,23.66,20.15,38.5V709.77C372.77,724.6,363.75,731.42,352.62,725Z"/><path class="cls-2" d="M333.62,737,116.87,614.12c-11.13-6.42-20.15-20.66-20.15-35.5V31.36c0-14.84,12-23.66,23.15-17.23L333.62,137c11.13,6.42,20.15,23.66,20.15,38.5V721.77C353.77,736.6,344.75,743.42,333.62,737Z"/><polygon class="cls-3" points="340.35 666.54 110.14 535.9 110.14 81.91 340.35 212.54 340.35 666.54"/><polygon class="cls-1" points="340.35 666.54 110.14 535.9 110.14 481.9 340.35 612.54 340.35 666.54"/><polygon class="cls-1" points="340.35 255.54 110.14 124.9 110.14 81.91 340.35 212.54 340.35 255.54"/><path class="cls-4" d="M235.69,642.91c0,12.75-9,17.92-20,11.54s-20-21.88-20-34.63,9-17.92,20-11.54S235.69,630.16,235.69,642.91Z"/><path class="cls-1" d="M246.8,124.52l-39-22.5a4.79,4.79,0,0,1-2.17-3.75h0c0-1.38,1-1.94,2.17-1.25l39,22.5a4.79,4.79,0,0,1,2.17,3.75h0C249,124.65,248,125.21,246.8,124.52Z"/><path class="cls-1" d="M198.62,94.12c0,1.33-.94,1.88-2.09,1.21a4.63,4.63,0,0,1-2.09-3.62c0-1.33.94-1.88,2.09-1.21A4.63,4.63,0,0,1,198.62,94.12Z"/><path class="cls-5" d="M362.65,272.93l-.46.26c-1.7,1-3.07-.06-3.07-2.32V245.81a7.35,7.35,0,0,1,3.07-5.87l.46-.26a3,3,0,0,1,.62-.27c1.4-.43,2.45.62,2.45,2.6v25.06A7.35,7.35,0,0,1,362.65,272.93Z"/><polygon class="cls-5" points="360.34 273.43 364.57 275.01 366.71 270.33 361.62 270.33 360.34 273.43"/><polygon class="cls-5" points="364.41 239.4 368.36 240.88 367.17 243.47 364.12 243.14 363.58 240.68 364.41 239.4"/><path class="cls-2" d="M365.65,274.43l-.46.26c-1.7,1-3.07-.06-3.07-2.32V247.31a7.35,7.35,0,0,1,3.07-5.87l.46-.26c1.7-1,3.07.06,3.07,2.32v25.06A7.35,7.35,0,0,1,365.65,274.43Z"/><path class="cls-5" d="M362.58,330.69,362,331c-2.14,1.24-3.88-.08-3.88-2.93V296.64c0-2.85,1.74-6.17,3.88-7.41l.58-.33c2.14-1.24,3.88.08,3.88,2.93v31.46C366.46,326.14,364.72,329.45,362.58,330.69Z"/><polygon class="cls-5" points="359.34 331.15 362.95 333.27 363.97 328.79 360.63 328.79 359.34 331.15"/><polygon class="cls-5" points="365.2 288.74 368.2 290.54 365.86 292.55 364.44 290.28 365.2 288.74"/><path class="cls-2" d="M366,332.69l-.58.33c-2.14,1.24-3.88-.08-3.88-2.93V298.64c0-2.85,1.74-6.17,3.88-7.41l.58-.33c2.14-1.24,3.88.08,3.88,2.93v31.46C369.87,328.14,368.14,331.45,366,332.69Z"/><path class="cls-5" d="M362.58,388.69,362,389c-2.14,1.24-3.88-.08-3.88-2.93V354.64c0-2.85,1.74-6.17,3.88-7.41l.58-.33c2.14-1.24,3.88.08,3.88,2.93v31.46C366.46,384.14,364.72,387.45,362.58,388.69Z"/><polygon class="cls-5" points="359.34 389.15 362.95 391.27 363.97 386.79 360.63 386.79 359.34 389.15"/><polygon class="cls-5" points="365.2 346.74 368.2 348.54 365.86 350.55 364.44 348.28 365.2 346.74"/><path class="cls-2" d="M366,390.69l-.58.33c-2.14,1.24-3.88-.08-3.88-2.93V356.64c0-2.85,1.74-6.17,3.88-7.41l.58-.33c2.14-1.24,3.88.08,3.88,2.93v31.46C369.87,386.14,368.14,389.45,366,390.69Z"/><polygon class="cls-1" points="308.51 365.4 137.04 266.41 137.04 255.91 308.51 354.91 308.51 365.4"/><polygon class="cls-1" points="267.01 359.44 137.04 284.41 137.04 273.91 267.01 348.94 267.01 359.44"/><polygon class="cls-1" points="127.1 268.09 118.44 263.09 118.44 245.17 127.1 250.17 127.1 268.09"/><path class="cls-6" d="M151.48,339s9.2,7.21,14.26,13.65"/><path class="cls-6" d="M151.77,478s9.2,7.21,14.26,13.65"/><path class="cls-6" d="M266.2,539.3s9.2,7.21,14.26,13.65"/><path class="cls-6" d="M267.18,400.4s9.2,7.21,14.26,13.65"/><path class="cls-7" d="M297.36,435.4v47.49a1.56,1.56,0,0,1-.44,1.22h0l-.24.15-4.91,2.94-1.3-1.54,1-4L221,441a3.88,3.88,0,0,1-1.61-3.08V395.46l-1.08.33-3.38-3.69,5-3h0a1,1,0,0,1,1.11,0l74.75,43.16A3.85,3.85,0,0,1,297.36,435.4Z"/><path class="cls-7" d="M199.11,378.47V426a1.56,1.56,0,0,1-.44,1.22h0l-.24.15-4.91,2.94-1.3-1.54,1-4L122.75,384a3.88,3.88,0,0,1-1.61-3.08V338.53l-1.08.33-3.38-3.69,5-3h0a1,1,0,0,1,1.11,0l74.75,43.16A3.85,3.85,0,0,1,199.11,378.47Z"/><path class="cls-8" d="M192.32,430.28l-74.75-43.15a3.86,3.86,0,0,1-1.61-3.08v-47.5c0-1.19.72-1.73,1.61-1.22l74.75,43.15a3.86,3.86,0,0,1,1.61,3.08v47.5C193.94,430.25,193.21,430.8,192.32,430.28Z"/><path class="cls-8" d="M290.75,487.11,216,444a3.86,3.86,0,0,1-1.61-3.08v-47.5c0-1.19.72-1.73,1.61-1.22l74.75,43.15a3.86,3.86,0,0,1,1.61,3.08v47.5C292.36,487.08,291.64,487.62,290.75,487.11Z"/><text class="cls-9" transform="matrix(0.87, 0.5, 0, 1, 239.65, 437.83)">Y<tspan class="cls-10" x="11.15" y="0">ES</tspan></text><text class="cls-11" transform="matrix(0.87, 0.5, 0, 1, 142.79, 381.91)">NO</text><ellipse class="cls-12" cx="84.61" cy="663.02" rx="84.61" ry="35"/><polygon class="cls-13" points="41.98 636.7 40.49 644.2 55.07 645.03 55.89 634.1 41.98 636.7"/><path class="cls-2" d="M40.3,642.72l-2.45,14.77A5.77,5.77,0,0,0,41,663.64c2.42,1.16,6.08,1.74,11.15-.41a17.5,17.5,0,0,0,6.58-5.08c1.72-2.09,4.6-4.92,8.18-5.93a44.25,44.25,0,0,0,9.7-4.49,7.08,7.08,0,0,0,3.46-6.09h0a4,4,0,0,0-3.62-4l-20.61,0-1.18,1.66A9.1,9.1,0,0,1,49,643.14a11.47,11.47,0,0,1-6.25-.64l-1.2-.48A.9.9,0,0,0,40.3,642.72Z"/><path class="cls-14" d="M80.12,641.63a7.07,7.07,0,0,1-3.46,6.09,44.35,44.35,0,0,1-9.7,4.5c-3.58,1-6.46,3.84-8.18,5.93a17.57,17.57,0,0,1-6.58,5.08c-5.07,2.15-8.73,1.57-11.15.41a5.76,5.76,0,0,1-3.19-6.15l.1-.63A5.75,5.75,0,0,0,41,660.64c2.42,1.16,6.08,1.74,11.15-.41a17.57,17.57,0,0,0,6.58-5.08c1.72-2.09,4.6-4.92,8.18-5.93a44.35,44.35,0,0,0,9.7-4.5,7,7,0,0,0,3.24-4.37A3.62,3.62,0,0,1,80.12,641.63Z"/><polygon class="cls-13" points="87.73 658.59 86.27 670.76 100.9 670.34 100.9 658.59 87.73 658.59"/><path class="cls-2" d="M86.27,668s-6.34,19.66,2.34,20.91A59.85,59.85,0,0,0,104,689c.58-.08,1.15-.13,1.73-.15,5.13-.24,29.19-1.48,32.92-3.72a4,4,0,0,0,1.86-3.72,7.4,7.4,0,0,0-6.14-7.12l-18.79-2.75a25.19,25.19,0,0,1-10.33-4l-4.41-2.94-1.52,1.68a8.61,8.61,0,0,1-8,2.67h-.07Z"/><path class="cls-14" d="M140.57,681.45a4,4,0,0,1-1.86,3.72c-3.73,2.24-27.79,3.48-32.93,3.72-.58,0-1.15.08-1.73.16a60.46,60.46,0,0,1-15.44-.11c-4-.58-4.79-5-4.52-9.6.25,3.39,1.43,6.15,4.52,6.6a60.46,60.46,0,0,0,15.44.11c.58-.08,1.15-.13,1.73-.16,5.14-.24,29.2-1.48,32.93-3.72a3.63,3.63,0,0,0,1.68-2.27A6.63,6.63,0,0,1,140.57,681.45Z"/><path class="cls-15" d="M60,628.74s9.53-76.75,9.79-81.15V499.42l2.64.42,20.67,74.45a27.23,27.23,0,0,1,.37,8.47l-9.59,75.71c-.08.7,1.32,1.36,2,1.62l.3.12a20.38,20.38,0,0,0,14.4.1l.65-.24a2.22,2.22,0,0,0,1.39-1.55l16.56-66.66a50,50,0,0,0,1.37-15.22l-7-109.67L42,440.75h0a55.87,55.87,0,0,0-4.9,23.44c.11,9,1.1,25,3,33.87h0l3.26,53.65-5.5,79.67c-.19,1,1.34,4.7,4.66,5.71,3.79,1.15,9.56-.19,14.7-4.06A7.55,7.55,0,0,0,60,628.74Z"/><path class="cls-16" d="M105.48,474.74a15,15,0,0,0,5.42-1.25c2.08-1,3.52-3.09,3.6-4.06l-.09-7.5a247.76,247.76,0,0,1,4-47.57l1.19-6.5L113,397l19.29-1.18.65-8.57,0-.21a30.54,30.54,0,0,0-12.63-26.71L103.59,348.1l-7.29-1.61a17.11,17.11,0,0,1-11.22-8,13,13,0,0,1-1.49-3.76h0a24.66,24.66,0,0,0-20.67-1.47c-11.78,4.63-10.47,22-10.47,22A309,309,0,0,1,42,440.75h0s-1.3,2.87,1.58,5.88C52.2,455.69,71.33,474.37,105.48,474.74Z"/><path class="cls-13" d="M236.72,432.57c-1.49-.48-7.77-6.52-8-5.38-2.46,14.17-21.14,1.41-21.14,1.41-7.12-1.88-36.1,6.19-48.34,6.44-12,.24-29-4.95-38.35-19v0a38.27,38.27,0,0,1-3.9-7.5c-.19-.5-.38-1-.56-1.52-1.43-4.17-2.6-7.48-3.51-10l19.32-1.19c2.53,6.45,10.39,21.67,28,21,22.33-.9,35.67-6,49.85-6.33S232.92,417.17,238,427C240,430.91,240.28,433.73,236.72,432.57Z"/><path class="cls-13" d="M141.45,308c-.08,1.17-2,15.36-2.28,16.47-3.33,12.93-14.28,16.6-26.45,14.92-1.41-.2-2.76-3.69-4.07-4.14-10.94-3.75-18-12.72-16.16-25.9,2-14.76,14.41-25.25,27.63-23.42S142.75,289,141.45,308Z"/><path class="cls-13" d="M80.65,341.56c-.63-2.56-.26-4.91,1.9-6.41l.47-.33c4.33-3,7-6.65,9.8-11.1l1-.2,14.77,11.71L104,348.37a3.89,3.89,0,0,1-2.76,1.79,23.26,23.26,0,0,1-13.81-1.76C85,347.2,81.41,344.64,80.65,341.56Z"/><path class="cls-17" d="M143.15,278.18c-3.34-6.19-11.71-10.44-17-1.58-2.47,4.13-12.28-.83-15.72-1.92-4.19-1.34-7.7-2.75-15,.2-4.29,1.73-5.45,5.89-7.1,6.64-18.54,8.48-5.54,27.2-.26,32.27,6.15,5.92,4.76,9.93,4.76,9.93l13.57,4.15,4.91.68c4.12-1.89,4-7.24,5.18-9.56l1.37-.7-4-3.46s-.17-7.94,3.73-8.67,7.17,5.43,7.17,5.43l2.49-.51-.74-7.15a6.79,6.79,0,0,1,5-7.25,17.73,17.73,0,0,0,8.14-4.51C143.13,288.48,145.16,281.9,143.15,278.18Z"/><path class="cls-18" d="M143.85,321.56,141.23,310l-1.88,13.62,3.58-.64A1.16,1.16,0,0,0,143.85,321.56Z"/><path class="cls-19" d="M124.41,315.81s-7.2.72-7.92,3.18c-.29,1-1.36,4.73-3.38,6.6-2.53,2.34-6.72,2.28-6.72,2.28s.81,10.59,9.55,14.32,20.94,2.43,23.76-5.59a18,18,0,0,0,.84-9.69,10.77,10.77,0,0,0-1.2-3.31s-6.13,2.83-10.67-2c-1.36-1.45-1.53-5.88-1.53-5.88A11.58,11.58,0,0,1,124.41,315.81Z"/><path class="cls-13" d="M125,314.36c-.53,3.83-1.52,5.74-4.9,5.28a8.93,8.93,0,0,1-6.46-5.58,5.76,5.76,0,0,1-.3-3.2c.53-3.83,3.33-6.07,6.62-5.16a5.64,5.64,0,0,1,3.55,3.23C124.79,311.59,125.31,312.06,125,314.36Z"/><path class="cls-18" d="M122.54,313.64c-.24,1.74-.61,3.13-2.15,2.92s-3.86-2.64-3.82-4.4c.05-2.56,2.41-3.66,3.92-2.57A4.32,4.32,0,0,1,122.54,313.64Z"/><path class="cls-20" d="M113,397l-3.18-9.61.4,4.79A6.57,6.57,0,0,0,113,397Z"/><path class="cls-21" d="M290.46,630.57l-28.14-16.25a5.79,5.79,0,0,1-2.42-4.62V578.07c0-1.78,1.08-2.6,2.42-1.83l28.14,16.25a5.79,5.79,0,0,1,2.42,4.62v31.63C292.88,630.53,291.8,631.34,290.46,630.57Z"/><path class="cls-21" d="M330.3,653.57l-28.14-16.25a5.79,5.79,0,0,1-2.42-4.62V601.07c0-1.78,1.08-2.6,2.42-1.83l28.14,16.25a5.79,5.79,0,0,1,2.42,4.62v31.63C332.72,653.53,331.63,654.34,330.3,653.57Z"/><polyline class="cls-22" points="311.54 633.37 320.92 629.12 311.54 614.03"/><polyline class="cls-22" points="281.08 596.45 271.7 600.7 281.08 615.78"/><path class="cls-3" d="M329.68,242.88,122.49,123.26a5.75,5.75,0,0,1-2.4-4.59V101c0-1.77,1.07-2.58,2.4-1.81L329.68,218.83a5.75,5.75,0,0,1,2.4,4.59v17.64C332.08,242.83,331,243.64,329.68,242.88Z"/></g></g></svg>