<svg width="427" height="198" xmlns="http://www.w3.org/2000/svg">

 <g>
  <title>Layer 1</title>
  <path fill="#757575" d="m410.83399,32l-394.66797,0c-8.83203,0 -16,-7.16797 -16,-16s7.16797,-16 16,-16l394.66797,0c8.83203,0 16,7.16797 16,16s-7.16797,16 -16,16zm0,0"/>
  <g stroke="null">
   <path fill="#757575" stroke="null" d="m340.07145,198l-253.14292,0c-5.66493,0 -10.26252,-7.16797 -10.26252,-16s4.59759,-16 10.26252,-16l253.14292,0c5.66493,0 10.26252,7.16797 10.26252,16s-4.59759,16 -10.26252,16zm0,0"/>
  </g>
  <line fill="none" id="svg_11" y2="128" x2="357" y1="122" x1="70"/>
  <g id="svg_13" stroke="null">
   <path fill="#757575" id="svg_12" stroke="null" d="m375.22148,115l-323.44296,0c-7.23813,0 -13.1125,-7.16797 -13.1125,-16s5.87437,-16 13.1125,-16l323.44296,0c7.23813,0 13.1125,7.16797 13.1125,16s-5.87437,16 -13.1125,16zm0,0"/>
  </g>
 </g>
</svg>